<?xml version="1.0" encoding="utf-8"?>
<!-- Generator: Adobe Illustrator 16.0.0, SVG Export Plug-In . SVG Version: 6.00 Build 0)  -->
<!DOCTYPE svg PUBLIC "-//W3C//DTD SVG 1.1//EN" "http://www.w3.org/Graphics/SVG/1.1/DTD/svg11.dtd">
<svg version="1.1" id="Layer_1" xmlns="http://www.w3.org/2000/svg" xmlns:xlink="http://www.w3.org/1999/xlink" x="0px" y="0px"
	 width="200px" height="200px" viewBox="0 0 200 200" enable-background="new 0 0 200 200" xml:space="preserve">
<g opacity="0.7">
	<g>
		<defs>
			
				<rect id="SVGID_1_" x="91.039" y="135.255" transform="matrix(-1 0.009 -0.009 -1 187.8239 286.8243)" width="4.457" height="17.158"/>
		</defs>
		<clipPath id="SVGID_2_">
			<use xlink:href="#SVGID_1_"  overflow="visible"/>
		</clipPath>
		<path clip-path="url(#SVGID_2_)" fill="#81D4F7" d="M95.437,137.461c-0.011-1.226-1.018-2.221-2.25-2.208
			c-1.229,0.012-2.216,1.022-2.205,2.25c0.011,1.23,2.365,14.91,2.365,14.91S95.45,138.69,95.437,137.461"/>
	</g>
</g>
<g opacity="0.7">
	<g>
		<defs>
			
				<rect id="SVGID_3_" x="97.98" y="148.729" transform="matrix(-1 0.0094 -0.0094 -1 201.8985 313.6622)" width="4.462" height="17.155"/>
		</defs>
		<clipPath id="SVGID_4_">
			<use xlink:href="#SVGID_3_"  overflow="visible"/>
		</clipPath>
		<path clip-path="url(#SVGID_4_)" fill="#81D4F7" d="M102.38,150.935c-0.011-1.229-1.02-2.219-2.249-2.206
			c-1.232,0.009-2.219,1.018-2.206,2.245c0.011,1.235,2.365,14.911,2.365,14.911S102.391,152.165,102.38,150.935"/>
	</g>
</g>
<g opacity="0.7">
	<g>
		<defs>
			
				<rect id="SVGID_5_" x="104.987" y="137.321" transform="matrix(-1 0.0092 -0.0092 -1 215.767 290.8065)" width="4.455" height="17.158"/>
		</defs>
		<clipPath id="SVGID_6_">
			<use xlink:href="#SVGID_5_"  overflow="visible"/>
		</clipPath>
		<path clip-path="url(#SVGID_6_)" fill="#81D4F7" d="M109.384,139.531c-0.011-1.231-1.02-2.22-2.249-2.208
			c-1.231,0.01-2.221,1.018-2.209,2.25c0.013,1.229,2.368,14.908,2.368,14.908S109.396,140.76,109.384,139.531"/>
	</g>
</g>
<g opacity="0.7">
	<g>
		<defs>
			
				<rect id="SVGID_7_" x="91.196" y="128.076" transform="matrix(-1 0.0094 -0.0094 -1 201.3191 261.0354)" width="17.695" height="5.834"/>
		</defs>
		<clipPath id="SVGID_8_">
			<use xlink:href="#SVGID_7_"  overflow="visible"/>
		</clipPath>
		
			<rect x="91.199" y="128.075" transform="matrix(1 -0.0094 0.0094 1 -1.2248 0.9445)" clip-path="url(#SVGID_8_)" fill="#9FDCF5" width="17.692" height="5.834"/>
	</g>
</g>
<g opacity="0.7">
	<g>
		<defs>
			
				<rect id="SVGID_9_" x="91.196" y="128.117" transform="matrix(-1 0.0095 -0.0095 -1 192.478 261.1547)" width="8.846" height="5.834"/>
		</defs>
		<clipPath id="SVGID_10_">
			<use xlink:href="#SVGID_9_"  overflow="visible"/>
		</clipPath>
		
			<rect x="91.196" y="128.116" transform="matrix(1 -0.0095 0.0095 1 -1.2397 0.9137)" clip-path="url(#SVGID_10_)" fill="#9FDCF5" width="8.846" height="5.835"/>
	</g>
</g>
<path fill="#FDC016" d="M99.999,125.995c13.098-0.123,24.361,7.929,28.957,19.392c1.333-3.493,2.052-7.283,2.014-11.25
	c-0.158-17.064-14.117-30.77-31.18-30.61c-17.063,0.159-30.768,14.12-30.609,31.186c0.037,3.965,0.826,7.743,2.221,11.212
	C75.79,134.376,86.899,126.116,99.999,125.995"/>
<path fill="#E3A325" d="M107.686,104.473l0.208,22.484c9.599,2.44,17.422,9.356,21.065,18.431c1.329-3.494,2.051-7.283,2.014-11.25
	C130.835,119.797,120.957,107.838,107.686,104.473"/>
<path fill="#F69320" d="M100.037,130.014c3.796-0.038,7.465,0.521,10.917,1.583c5.006-10.38,7.963-23.735,7.827-38.294
	c-0.215-23.138-8.163-43.092-19.578-52.814c-11.234,9.933-18.812,30.032-18.597,53.163c0.135,14.563,3.339,27.862,8.543,38.147
	C92.577,130.675,96.235,130.048,100.037,130.014"/>
<path fill="#EB4824" d="M99.203,40.488c-0.038,0.032-0.071,0.071-0.109,0.105l0.831,89.423c0.036,0.002,0.072-0.004,0.111-0.003
	c3.796-0.038,7.465,0.521,10.917,1.583c5.006-10.38,7.963-23.735,7.827-38.299C118.566,70.165,110.618,50.205,99.203,40.488"/>
<path fill="#FDC016" d="M99.408,62.387c4.797-0.046,9.498,0.082,14.089,0.343c-3.458-9.48-8.409-17.228-14.294-22.241
	c-5.792,5.121-10.602,12.962-13.881,22.504C89.906,62.645,94.606,62.432,99.408,62.387"/>
<path fill="#E3A325" d="M99.093,40.588l0.202,21.804c0.036-0.001,0.073-0.001,0.113,0c4.797-0.046,9.498,0.073,14.089,0.342
	c-3.459-9.489-8.409-17.231-14.294-22.245C99.165,40.521,99.127,40.557,99.093,40.588"/>
<path fill="#FDC016" d="M99.771,101.651c-2.392,4.114-3.98,12.458-3.891,22.077c0.087,9.624,1.833,17.936,4.301,22.004
	c2.389-4.113,3.979-12.456,3.889-22.08C103.981,114.037,102.237,105.721,99.771,101.651"/>
<path fill="#E3A325" d="M99.662,101.853l0.407,43.679c0.039,0.065,0.073,0.138,0.113,0.201c2.389-4.113,3.979-12.456,3.889-22.08
	c-0.09-9.618-1.834-17.932-4.299-22.001C99.734,101.717,99.702,101.793,99.662,101.853"/>
<path fill="#1CB1BF" d="M99.719,95.8c-7.2,0.067-13.109-5.733-13.176-12.929c-0.066-7.201,5.733-13.105,12.933-13.175
	c7.193-0.065,13.104,5.732,13.169,12.929C112.713,89.826,106.914,95.734,99.719,95.8"/>
<path fill="#FFFFFF" d="M99.512,73.681c-5.003,0.047-9.035,4.15-8.989,9.152c0.048,4.999,4.155,9.03,9.157,8.983
	c4.998-0.049,9.031-4.151,8.982-9.153C108.617,77.663,104.51,73.635,99.512,73.681"/>
<path fill="#1696A5" d="M99.474,69.697c-0.043-0.001-0.086,0.007-0.133,0.006l0.033,3.984c0.047,0,0.093-0.007,0.135-0.006
	c5-0.047,9.111,3.981,9.157,8.982c0.046,5.006-3.988,9.104-8.988,9.152c-0.043,0.001-0.086-0.006-0.134-0.007l0.039,3.979
	c0.048,0,0.092,0.01,0.133,0.009c7.199-0.063,12.998-5.972,12.932-13.172C112.58,75.429,106.672,69.63,99.474,69.697"/>
<path fill="#D2ECFA" d="M108.663,82.663c-0.046-5-4.15-9.028-9.151-8.982c-0.045,0-0.093,0.008-0.135,0.007l0.168,18.123
	c0.042-0.002,0.089,0.007,0.136,0.012C104.681,91.768,108.708,87.665,108.663,82.663"/>
<polygon fill="#F69320" points="69.003,35.145 50.367,35.145 1.992,101.963 50.367,168.781 69.003,168.781 20.628,101.963 "/>
<polygon fill="#F69320" points="131.891,35.145 150.527,35.145 198.902,101.963 150.527,168.781 131.891,168.781 180.266,101.963 
	"/>
</svg>
